<?xml version="1.0" standalone="no"?>
<!DOCTYPE svg PUBLIC "-//W3C//DTD SVG 20010904//EN"
 "http://www.w3.org/TR/2001/REC-SVG-20010904/DTD/svg10.dtd">
<svg version="1.0" xmlns="http://www.w3.org/2000/svg"
 width="512.000000pt" height="512.000000pt" viewBox="0 0 512.000000 512.000000"
 preserveAspectRatio="xMidYMid meet">
<metadata>
Created by potrace 1.14, written by Peter Selinger 2001-2017
</metadata>
<g transform="translate(0.000000,512.000000) scale(0.100000,-0.100000)"
fill="#000000" stroke="none">
<path d="M1379 3926 c-2 -2 -49 -7 -104 -10 -110 -7 -150 -12 -210 -28 -22 -5
-49 -12 -59 -14 -88 -17 -264 -96 -381 -171 -329 -212 -557 -567 -612 -954
-10 -66 -10 -317 -1 -379 41 -267 154 -512 325 -707 46 -52 99 -35 192 63 88
93 91 112 28 193 -90 117 -151 237 -187 371 -128 469 93 965 529 1186 170 86
304 115 503 109 65 -2 121 -6 125 -8 5 -3 28 -8 52 -12 57 -8 170 -49 246 -88
300 -155 505 -438 553 -762 13 -92 7 -285 -12 -370 -60 -265 -204 -477 -433
-638 l-53 -37 -25 40 c-28 44 -61 58 -95 40 -20 -11 -37 -42 -125 -235 -15
-33 -38 -83 -51 -111 -13 -28 -24 -63 -24 -77 0 -23 21 -56 38 -58 4 0 15 -2
26 -4 10 -2 58 -7 105 -10 47 -4 97 -8 110 -10 13 -2 65 -7 115 -10 69 -4 95
-2 108 8 26 21 28 58 5 100 -19 33 -19 40 -7 47 154 86 331 258 438 422 31 48
59 87 62 87 3 0 30 -39 60 -86 67 -107 252 -296 362 -371 153 -104 326 -177
519 -219 118 -25 400 -25 519 0 223 48 438 150 600 285 68 57 161 151 197 200
15 20 31 39 34 42 18 14 106 162 140 234 91 195 128 376 124 605 -5 305 -93
558 -282 806 -52 69 -88 96 -119 90 -10 -2 -23 -4 -28 -4 -4 -1 -44 -37 -87
-80 -93 -94 -98 -113 -44 -187 169 -235 233 -421 230 -665 -4 -211 -56 -382
-172 -557 -183 -277 -487 -447 -818 -457 -487 -16 -902 294 -1031 771 -23 85
-27 119 -28 244 0 85 5 170 13 205 60 274 215 509 431 653 l63 43 23 -40 c42
-68 97 -62 134 16 95 201 160 350 160 368 0 30 -32 57 -72 60 -18 1 -71 6
-118 10 -47 3 -96 8 -108 10 -13 2 -61 7 -106 10 -71 6 -84 4 -97 -12 -27 -31
-28 -49 -4 -91 l23 -40 -87 -58 c-119 -81 -301 -265 -371 -376 -30 -48 -57
-88 -60 -88 -3 0 -30 39 -60 87 -74 116 -255 299 -377 381 -125 83 -297 162
-404 187 -98 22 -175 35 -244 41 -44 3 -83 8 -86 10 -3 2 -8 2 -10 0z"/>
<path d="M1247 3213 c-32 -16 -45 -39 -52 -90 -17 -116 -126 -182 -229 -139
-87 36 -130 10 -197 -122 -45 -87 -42 -110 17 -159 52 -44 74 -86 74 -141 0
-59 -13 -84 -70 -139 -67 -64 -67 -84 -6 -194 64 -112 90 -128 169 -97 63 24
103 23 151 -5 53 -30 77 -66 87 -128 6 -36 17 -61 34 -78 23 -24 34 -26 119
-29 134 -5 186 24 186 104 0 59 55 126 121 145 41 13 50 12 146 -19 53 -17 88
9 145 108 62 108 61 133 -11 199 -89 83 -91 176 -7 256 47 44 66 74 66 102 0
24 -87 172 -114 195 -26 22 -78 23 -118 2 -45 -24 -118 -14 -164 21 -39 30
-61 72 -67 130 -3 22 -15 47 -30 62 -23 24 -33 26 -124 28 -69 2 -108 -2 -126
-12z m189 -506 c153 -79 97 -306 -76 -309 -109 -1 -189 105 -156 207 32 101
141 149 232 102z"/>
<path d="M3642 3209 c-35 -21 -42 -30 -48 -67 -11 -65 -17 -83 -36 -107 -45
-58 -131 -79 -201 -50 -50 21 -89 19 -115 -5 -23 -22 -95 -142 -106 -177 -9
-29 16 -85 45 -101 45 -24 74 -79 74 -141 -1 -65 -21 -106 -70 -140 -35 -23
-57 -67 -50 -100 4 -20 56 -118 87 -163 28 -41 72 -49 133 -26 59 23 109 20
160 -12 39 -24 75 -84 75 -124 0 -80 52 -109 186 -104 84 3 96 5 119 28 16 16
27 42 31 70 10 75 36 111 101 144 42 21 81 20 140 -2 47 -18 71 -18 105 3 19
11 102 148 110 183 10 36 -10 78 -47 104 -44 29 -75 86 -75 134 0 50 32 114
70 139 38 25 62 73 52 106 -13 47 -97 178 -120 189 -32 14 -63 13 -108 -6 -45
-19 -112 -14 -148 10 -41 26 -75 80 -80 123 -8 87 -37 106 -163 109 -73 1 -98
-2 -121 -17z m198 -504 c40 -21 82 -89 83 -136 2 -80 -53 -150 -130 -167 -78
-17 -143 15 -181 89 -72 140 85 288 228 214z"/>
</g>
</svg>
